<svg width="20" height="20" viewBox="0 0 20 20" fill="none" xmlns="http://www.w3.org/2000/svg">
<path fill-rule="evenodd" clip-rule="evenodd" d="M20 10C20 9.27963 19.5667 8.69565 19.0323 8.69565H0.967742C0.433272 8.69565 0 9.27963 0 10C0 10.7204 0.433272 11.3043 0.967742 11.3043H19.0323C19.5667 11.3043 20 10.7204 20 10Z" fill="#006BB8"/>
<path fill-rule="evenodd" clip-rule="evenodd" d="M20 1.30435C20 0.583976 19.5667 0 19.0323 0H0.967742C0.433272 0 0 0.583976 0 1.30435C0 2.02472 0.433272 2.6087 0.967742 2.6087H19.0323C19.5667 2.6087 20 2.02472 20 1.30435Z" fill="#006BB8"/>
<path fill-rule="evenodd" clip-rule="evenodd" d="M20 18.6957C20 17.9753 19.5667 17.3913 19.0323 17.3913H0.967742C0.433272 17.3913 0 17.9753 0 18.6957C0 19.416 0.433272 20 0.967742 20H19.0323C19.5667 20 20 19.416 20 18.6957Z" fill="#006BB8"/>
</svg>
