<svg width="15" height="13" viewBox="0 0 15 13" fill="none" xmlns="http://www.w3.org/2000/svg">
<path d="M6.09269 1.75203C6.43064 1.35123 6.43064 0.701402 6.09269 0.300601C5.75474 -0.1002 5.2068 -0.1002 4.86885 0.300601L0.253465 5.77428C0.0844884 5.97469 0 6.23734 0 6.5C0 6.63916 0.0233528 6.77185 0.0656643 6.89286C0.107895 7.01391 0.170495 7.12731 0.253465 7.22571L4.86885 12.6994C5.2068 13.1002 5.75474 13.1002 6.09269 12.6994C6.43064 12.2986 6.43064 11.6488 6.09269 11.248L2.95461 7.52632H14.1346C14.6126 7.52632 15 7.06682 15 6.5C15 5.93318 14.6126 5.47368 14.1346 5.47368H2.95461L6.09269 1.75203Z" fill="#006BB8"/>
</svg>
