<svg width="32" height="27" viewBox="0 0 32 27" fill="none" xmlns="http://www.w3.org/2000/svg">
<path d="M6.32848 1.63096C6.78989 1.22153 6.73535 0.599962 6.20666 0.242639C5.67797 -0.114684 4.87534 -0.0724472 4.41393 0.336978L2.22546 2.27887C0.984087 3.38039 0.282336 4.78484 0.242971 6.24654L0.146949 9.81195C0.132318 10.3553 0.68919 10.8049 1.39076 10.8162C2.09233 10.8275 2.67293 10.3963 2.68756 9.85298L2.78358 6.28758C2.81051 5.28746 3.29066 4.32652 4.14002 3.57286L6.32848 1.63096Z" fill="white"/>
<path fill-rule="evenodd" clip-rule="evenodd" d="M6.00356 8.56821C6.23886 5.65474 9.35873 3.38507 13.1282 3.38507H14.0726V2.40112C14.0726 1.67655 14.831 1.08918 15.7667 1.08918C16.7023 1.08918 17.4608 1.67655 17.4608 2.40112V3.38507H18.4051C22.1746 3.38507 25.2945 5.65474 25.5298 8.56821L25.9042 13.2039C26.0469 14.9713 26.8131 16.6746 28.1194 18.1281C29.2996 19.4414 28.2489 21.2553 26.1975 21.4459L20.4255 21.9823V23.3922C20.4255 25.3847 18.3396 27 15.7667 27C13.1937 27 11.1079 25.3847 11.1079 23.3922V21.9823L5.33583 21.4459C3.28439 21.2553 2.23367 19.4414 3.41392 18.1281C4.72018 16.6746 5.48641 14.9713 5.62916 13.2039L6.00356 8.56821ZM13.1282 5.35298C10.7006 5.35298 8.6913 6.81471 8.53976 8.69106L8.16536 13.3267C7.99359 15.4536 7.07156 17.5031 5.49969 19.2522C5.41438 19.3472 5.49032 19.4783 5.6386 19.492L11.9706 20.0805C14.4923 20.3148 17.0411 20.3148 19.5627 20.0805L25.8947 19.492C26.043 19.4783 26.1189 19.3472 26.0336 19.2522C24.4618 17.5031 23.5397 15.4536 23.368 13.3267L22.9936 8.69105C22.842 6.81471 20.8327 5.35298 18.4051 5.35298H13.1282ZM15.7667 25.0321C14.5971 25.0321 13.649 24.2979 13.649 23.3922V22.4082H17.8843V23.3922C17.8843 24.2979 16.9362 25.0321 15.7667 25.0321Z" fill="white"/>
<path d="M25.3267 0.242639C24.798 0.599962 24.7434 1.22153 25.2049 1.63096L27.3933 3.57286C28.2427 4.32652 28.7228 5.28746 28.7498 6.28758L28.8458 9.85298C28.8604 10.3963 29.441 10.8275 30.1426 10.8162C30.8441 10.8049 31.401 10.3553 31.3864 9.81195L31.2904 6.24654C31.251 4.78484 30.5492 3.38039 29.3079 2.27887L27.1194 0.336978C26.658 -0.0724472 25.8554 -0.114684 25.3267 0.242639Z" fill="white"/>
</svg>
