<svg width="22" height="20" viewBox="0 0 22 20" fill="none" xmlns="http://www.w3.org/2000/svg">
<path fill-rule="evenodd" clip-rule="evenodd" d="M5.23071 0C4.64559 0 4.09918 0.292427 3.77462 0.779274L0.185396 6.16311C-0.0343367 6.49271 -0.0606139 6.91478 0.116541 7.26909C2.08065 11.1973 4.8102 14.6932 8.14476 17.5514L9.89548 19.0521C10.3559 19.4467 11.0352 19.4467 11.4956 19.0521L13.2463 17.5514C16.5808 14.6932 19.3104 11.1973 21.2745 7.26909C21.4517 6.91478 21.4254 6.49271 21.2056 6.16311L17.6164 0.779275C17.2919 0.292427 16.7455 0 16.1603 0H5.23071ZM5.02269 1.61132C5.06906 1.54178 5.14712 1.5 5.23071 1.5H7.57052L5.6554 6.09629C5.61128 6.20216 5.57799 6.31135 5.55555 6.42224C4.85172 6.36985 4.14848 6.30669 3.4461 6.23276L2.04039 6.08479L5.02269 1.61132ZM1.97418 7.58611C3.76758 10.8761 6.13573 13.8214 8.96874 16.2812L5.84327 7.94667C4.99094 7.88808 4.1394 7.81402 3.28907 7.72452L1.97418 7.58611ZM7.48033 8.04016L10.6955 16.614L13.9107 8.04016C11.7684 8.13762 9.62269 8.13762 7.48033 8.04016ZM15.5478 7.94667L12.4223 16.2812C15.2553 13.8214 17.6235 10.8761 19.4169 7.58611L18.102 7.72452C17.2516 7.81402 16.4001 7.88807 15.5478 7.94667ZM19.3507 6.08479L17.9449 6.23276C17.2426 6.30669 16.5393 6.36985 15.8355 6.42224C15.8131 6.31135 15.7798 6.20216 15.7357 6.09629L13.8205 1.5H16.1603C16.2439 1.5 16.322 1.54178 16.3684 1.61133L19.3507 6.08479ZM14.2872 6.52005C11.8944 6.64432 9.49668 6.64432 7.10383 6.52005L9.19552 1.5H12.1955L14.2872 6.52005Z" fill="#006BB8"/>
</svg>
