<svg width="18" height="18" viewBox="0 0 18 18" fill="none" xmlns="http://www.w3.org/2000/svg">
<path fill-rule="evenodd" clip-rule="evenodd" d="M1.39456 11.5542C-0.853309 6.03675 3.2058 0 9.16361 0H9.48503C13.9407 0 17.5527 3.61201 17.5527 8.06765C17.5527 13.0285 13.5311 17.05 8.57032 17.05H0.750042C0.431785 17.05 0.148182 16.8491 0.0425544 16.5489C-0.0630732 16.2487 0.0322771 15.9145 0.28042 15.7152L2.25191 14.1319C2.33811 14.0627 2.36861 13.9451 2.32689 13.8427L1.39456 11.5542ZM9.16361 1.5C4.27108 1.5 0.937757 6.45735 2.78369 10.9883L3.71603 13.2768C4.00803 13.9935 3.79458 14.8169 3.19115 15.3015L2.88171 15.55H8.57032C12.7027 15.55 16.0527 12.2 16.0527 8.06765C16.0527 4.44044 13.1122 1.5 9.48503 1.5H9.16361Z" fill="#969696"/>
</svg>
