<svg width="20" height="20" viewBox="0 0 20 20" fill="none" xmlns="http://www.w3.org/2000/svg">
<path d="M11.5 7.75002C11.5 7.3358 11.1642 7.00002 10.75 7.00002H4.75C4.33579 7.00002 4 7.3358 4 7.75002C4 8.16423 4.33579 8.50002 4.75 8.50002H10.75C11.1642 8.50002 11.5 8.16423 11.5 7.75002Z" fill="#006BB8"/>
<path d="M10.5 10.75C10.5 10.3358 10.1642 10 9.75 10H4.75C4.33579 10 4 10.3358 4 10.75C4 11.1642 4.33579 11.5 4.75 11.5H9.75C10.1642 11.5 10.5 11.1642 10.5 10.75Z" fill="#006BB8"/>
<path d="M10.75 13C11.1642 13 11.5 13.3358 11.5 13.75C11.5 14.1642 11.1642 14.5 10.75 14.5H4.75C4.33579 14.5 4 14.1642 4 13.75C4 13.3358 4.33579 13 4.75 13H10.75Z" fill="#006BB8"/>
<path fill-rule="evenodd" clip-rule="evenodd" d="M4 19.75H17C18.5188 19.75 19.75 18.5188 19.75 17V11.5C19.75 11.0858 19.4142 10.75 19 10.75H15.75V2.94321C15.75 1.51981 14.1411 0.691843 12.9828 1.51918L12.8078 1.64421C12.0273 2.2017 10.9701 2.19983 10.1859 1.63972C8.88206 0.70839 7.11794 0.70839 5.81407 1.63972C5.02992 2.19983 3.9727 2.2017 3.19221 1.64421L3.01717 1.51918C1.8589 0.691843 0.25 1.51981 0.25 2.94321V16C0.25 18.0711 1.92893 19.75 4 19.75ZM6.68593 2.86032C7.46825 2.30152 8.53175 2.30152 9.31407 2.86032C10.6161 3.79035 12.3739 3.79745 13.6796 2.86481L13.8547 2.73978C14.0202 2.62159 14.25 2.73987 14.25 2.94321V17C14.25 17.4501 14.3581 17.875 14.5499 18.25H4C2.75736 18.25 1.75 17.2427 1.75 16V2.94321C1.75 2.73987 1.97984 2.62159 2.14531 2.73978L2.32036 2.86481C3.62605 3.79745 5.3839 3.79034 6.68593 2.86032ZM15.75 17V12.25H18.25V17C18.25 17.6904 17.6904 18.25 17 18.25C16.3096 18.25 15.75 17.6904 15.75 17Z" fill="#006BB8"/>
</svg>
