<svg width="14" height="18" viewBox="0 0 14 18" fill="none" xmlns="http://www.w3.org/2000/svg">
<path fill-rule="evenodd" clip-rule="evenodd" d="M5.79593 0C5.10484 0 4.52835 0.591231 4.468 1.36189C4.34182 2.97317 4.30989 4.59164 4.3723 6.20693C4.29696 6.21258 4.22164 6.21847 4.14632 6.22462L2.8157 6.3332C1.9652 6.4026 1.48976 7.46416 1.94892 8.26854C2.92817 9.98406 4.18997 11.4754 5.66704 12.6632L6.20013 13.0918C6.63234 13.4394 7.21448 13.4394 7.64669 13.0918L8.17978 12.6632C9.65686 11.4754 10.9186 9.98406 11.8979 8.26855C12.3571 7.46416 11.8816 6.4026 11.0311 6.3332L9.7005 6.22462C9.62519 6.21847 9.54986 6.21258 9.47452 6.20693C9.53693 4.59164 9.505 2.97317 9.37882 1.36188C9.31847 0.591229 8.74199 0 8.05089 0H5.79593ZM5.74554 6.86473C5.64396 5.0775 5.66293 3.28417 5.80232 1.5H8.0445C8.18389 3.28417 8.20286 5.0775 8.10128 6.86473C8.08989 7.06509 8.15074 7.26221 8.27022 7.41195C8.3897 7.5617 8.55782 7.65156 8.73696 7.66144C9.02581 7.67737 9.31454 7.69711 9.60308 7.72065L10.5694 7.79951C9.71226 9.21281 8.63893 10.4471 7.398 11.4449L6.92341 11.8265L6.44882 11.4449C5.20789 10.4471 4.13456 9.2128 3.27737 7.79951L4.24375 7.72065C4.53228 7.69711 4.82101 7.67737 5.10986 7.66144C5.289 7.65156 5.45712 7.56169 5.5766 7.41195C5.69608 7.26221 5.75693 7.06509 5.74554 6.86473Z" fill="#006BB8"/>
<path d="M1.34 13.75C1.34 13.3358 1.04003 13 0.670001 13C0.29997 13 0 13.3358 0 13.75V15.75C0 16.7165 0.699929 17.5 1.56334 17.5H12.2833C13.1468 17.5 13.8467 16.7165 13.8467 15.75V13.75C13.8467 13.3358 13.5467 13 13.1767 13C12.8066 13 12.5067 13.3358 12.5067 13.75V15.75C12.5067 15.8881 12.4067 16 12.2833 16H1.56334C1.43999 16 1.34 15.8881 1.34 15.75V13.75Z" fill="#006BB8"/>
</svg>
