<svg width="15" height="20" viewBox="0 0 15 20" fill="none" xmlns="http://www.w3.org/2000/svg">
<path fill-rule="evenodd" clip-rule="evenodd" d="M11.0324 1.99092L11.8195 2.09111C13.6363 2.32237 15 3.90053 15 5.77173V16.1466C15 17.9634 13.6759 19.4958 11.9119 19.7203C8.98194 20.0932 6.01806 20.0932 3.08814 19.7203C1.32412 19.4958 0 17.9634 0 16.1466V5.77172C0 3.90053 1.36374 2.32237 3.18053 2.09111L3.96765 1.99092C4.27944 0.842751 5.30955 0 6.53226 0H8.46774C9.69045 0 10.7206 0.842751 11.0324 1.99092ZM3.87097 3.49831L3.35993 3.56336C2.26985 3.70211 1.45161 4.64901 1.45161 5.77172V16.1466C1.45161 17.215 2.23024 18.116 3.26754 18.248C6.07832 18.6058 8.92168 18.6058 11.7325 18.248C12.7698 18.116 13.5484 17.215 13.5484 16.1466V5.77173C13.5484 4.64901 12.7301 3.70211 11.6401 3.56336L11.129 3.49831V4.69813C11.129 5.10782 10.8041 5.43994 10.4032 5.43994H4.59677C4.19592 5.43994 3.87097 5.10782 3.87097 4.69813V3.49831ZM5.32258 2.71997C5.32258 2.03715 5.86417 1.48362 6.53226 1.48362H8.46774C9.13583 1.48362 9.67742 2.03715 9.67742 2.71997V3.95632H5.32258V2.71997Z" fill="#006BB8"/>
</svg>
