<svg width="16" height="19" viewBox="0 0 16 19" fill="none" xmlns="http://www.w3.org/2000/svg">
<path fill-rule="evenodd" clip-rule="evenodd" d="M9.54849 2.49455C8.7666 1.67478 7.53211 1.67478 6.75022 2.49455L2.59506 6.85105C2.49325 6.95779 2.42477 7.09683 2.39932 7.24847C1.90164 10.2139 1.8649 13.2498 2.29066 16.2286L2.39171 16.9357H5.06497V10.8403C5.06497 10.4338 5.36655 10.1043 5.73857 10.1043H10.5601C10.9322 10.1043 11.2337 10.4338 11.2337 10.8403V16.9357H13.907L14.008 16.2286C14.4338 13.2498 14.3971 10.2139 13.8994 7.24847C13.8739 7.09683 13.8055 6.95779 13.7036 6.85105L9.54849 2.49455ZM5.81746 1.43243C7.12061 0.0661434 9.1781 0.0661434 10.4812 1.43243L14.6364 5.78892C14.9423 6.10962 15.148 6.52737 15.2245 6.98296C15.7495 10.1111 15.7882 13.3136 15.3391 16.4558L15.1768 17.5917C15.1096 18.0614 14.7393 18.4077 14.3042 18.4077H10.5601C10.1881 18.4077 9.88653 18.0782 9.88653 17.6717V11.5763H6.41217V17.6717C6.41217 18.0782 6.11059 18.4077 5.73857 18.4077H1.9945C1.55937 18.4077 1.18908 18.0614 1.12194 17.5917L0.959589 16.4558C0.510479 13.3136 0.549231 10.1111 1.07422 6.98296C1.15068 6.52737 1.35643 6.10962 1.6623 5.78892L5.81746 1.43243Z" fill="#1565C0"/>
</svg>
