<svg width="375" height="582" viewBox="0 0 375 582" fill="none" xmlns="http://www.w3.org/2000/svg">
<g clip-path="url(#clip0_26_78)">
<path d="M133.04 477.91C167.895 477.91 196.15 471.664 196.15 463.96C196.15 456.256 167.895 450.01 133.04 450.01C98.1853 450.01 69.93 456.256 69.93 463.96C69.93 471.664 98.1853 477.91 133.04 477.91Z" fill="black"/>
<path d="M133.04 463.96L97.59 574.91" stroke="black" stroke-width="4" stroke-miterlimit="10" stroke-linecap="round"/>
<path d="M133.04 463.96L168.49 574.91" stroke="black" stroke-width="4" stroke-miterlimit="10" stroke-linecap="round"/>
<path d="M109.23 538.48L148.75 513.14" stroke="black" stroke-width="2" stroke-miterlimit="10" stroke-linecap="round"/>
<path d="M117.17 513.14L156.7 538.48" stroke="black" stroke-width="2" stroke-miterlimit="10" stroke-linecap="round"/>
<path d="M195.15 343.86C194.99 348.78 195.06 366.01 194.25 373.38" stroke="#1F161E" stroke-miterlimit="10" stroke-linecap="round"/>
<path d="M375.64 235.65H324.08C322.407 235.65 321.05 237.007 321.05 238.68V255.52C321.05 257.193 322.407 258.55 324.08 258.55H375.64C377.313 258.55 378.67 257.193 378.67 255.52V238.68C378.67 237.007 377.313 235.65 375.64 235.65Z" fill="#78E5E1"/>
<path d="M349.85 274.25L356.79 253.23H342.91L349.85 274.25Z" fill="#78E5E1"/>
<path d="M336.1 241.75L330.28 251.82H341.91L336.1 241.75Z" fill="white"/>
<path d="M363.61 251.82L369.43 241.75H357.79L363.61 251.82Z" fill="white"/>
<path d="M349.85 251.16C352.263 251.16 354.22 249.203 354.22 246.79C354.22 244.377 352.263 242.42 349.85 242.42C347.436 242.42 345.48 244.377 345.48 246.79C345.48 249.203 347.436 251.16 349.85 251.16Z" fill="white"/>
<path d="M345.36 187.12H311.52C310.056 187.12 308.87 188.306 308.87 189.77V210.23C308.87 211.694 310.056 212.88 311.52 212.88H345.36C346.824 212.88 348.01 211.694 348.01 210.23V189.77C348.01 188.306 346.824 187.12 345.36 187.12Z" fill="#D8D8D8"/>
<path d="M310.1 187.93L328.44 200" stroke="#969696" stroke-width="0.82" stroke-linecap="round" stroke-linejoin="round"/>
<path d="M348.01 187.12L328.44 200" stroke="#969696" stroke-width="0.82" stroke-linecap="round" stroke-linejoin="round"/>
<path d="M348.01 192.72C351.103 192.72 353.61 190.213 353.61 187.12C353.61 184.027 351.103 181.52 348.01 181.52C344.917 181.52 342.41 184.027 342.41 187.12C342.41 190.213 344.917 192.72 348.01 192.72Z" fill="#FBDC8E"/>
<path d="M348.989 183.762V188.98H348.329V184.585L347 185.07V184.475L348.885 183.762H348.989Z" fill="white"/>
<path d="M276.65 209.31H240.14C233.513 209.31 228.14 214.683 228.14 221.31V239.12C228.14 245.747 233.513 251.12 240.14 251.12H276.65C283.277 251.12 288.65 245.747 288.65 239.12V221.31C288.65 214.683 283.277 209.31 276.65 209.31Z" fill="#D8D8D8"/>
<path d="M249.76 216.04H240.66V244.39H249.76V216.04Z" fill="#AB8DE5"/>
<path d="M262.95 234.9H253.85V244.4H262.95V234.9Z" fill="#AB8DE5"/>
<path d="M276.13 226.9H267.03V244.39H276.13V226.9Z" fill="#AB8DE5"/>
<path d="M-14.21 139.88C-19.2392 139.879 -24.2193 140.868 -28.866 142.792C-33.5127 144.715 -37.735 147.536 -41.2916 151.091C-44.8482 154.647 -47.6695 158.869 -49.5944 163.515C-51.5193 168.161 -52.51 173.141 -52.51 178.17H24.09C24.09 173.141 23.0993 168.161 21.1744 163.515C19.2495 158.869 16.4282 154.647 12.8716 151.091C9.31497 147.536 5.09273 144.715 0.446014 142.792C-4.2007 140.868 -9.18085 139.879 -14.21 139.88Z" fill="#AB8DE5"/>
<path d="M286.19 561.68C286.19 564.05 284.8 579 287.57 580.38C290.34 581.76 320.79 582.6 322.17 581.21C323.55 579.82 324.38 576.92 323.17 576.09C321.96 575.26 310.17 572.91 308.57 571.8C306.97 570.69 304.76 564.8 305.57 561.68" fill="#1F161E"/>
<path d="M195.15 366.25L212.29 360.1C211.55 328.83 204.24 258.96 193.86 248.57C191.42 246.14 143.16 241.9 134.55 241.9C83.17 241.9 67.93 247.76 64.06 251.64C52.06 263.64 48.32 319.24 48.32 338.71C48.32 358.18 103.32 368.28 103.32 368.28L167.79 372.71C167.79 372.71 181.93 374.17 194.16 374.89C194.43 371.14 195.15 366.25 195.15 366.25Z" fill="#78E5E1"/>
<path d="M246.22 384.38C250.91 382.99 297.55 375.38 307.71 385.38C317.87 395.38 349.85 538.75 349.85 542.05H324.1L289.34 467.24" fill="#1F161E"/>
<path d="M76.41 371.63C75.24 377.48 68.21 383.76 68.21 415.63C68.21 459.7 104.31 460.63 117.27 460.63C157.65 460.63 222.98 448.63 227.39 446.43C230.32 451.33 284.25 561.43 284.5 563.89H309.33C309.33 563.89 293.94 399.17 266.17 380.49C257.15 374.49 97.12 368.07 76.41 371.63Z" fill="#55B79D"/>
<path d="M221.81 339.41C215.29 339.41 209.91 340.96 195.15 343.86L194.38 372.1C208.38 366.46 211.63 358.62 215.69 358.62C225.83 358.62 231.13 363.85 237.12 363.85C241.3 363.85 248.82 360.57 248.82 356.11C248.82 346.77 229.89 339.41 221.81 339.41Z" fill="#F8CDBA"/>
<path d="M325.56 540.07C325.56 542.45 324.17 557.39 326.94 558.78C329.71 560.17 360.16 560.99 361.54 559.61C362.92 558.23 363.75 555.32 362.54 554.49C361.33 553.66 349.54 551.3 347.94 550.19C346.34 549.08 344.13 543.19 344.94 540.07" fill="#1F161E"/>
<path d="M143.64 248.55C143.64 252.32 121.75 252.43 121.75 248.55V217.89H143.64V248.55Z" fill="#F8CDBA"/>
<path d="M136.51 228C134.51 228 121.75 233.64 121.75 236.79V220.15C124.93 220.15 136.51 228 136.51 228Z" fill="#1F161E"/>
<path d="M140.74 229.3C155.376 229.3 167.24 217.436 167.24 202.8C167.24 188.164 155.376 176.3 140.74 176.3C126.104 176.3 114.24 188.164 114.24 202.8C114.24 217.436 126.104 229.3 140.74 229.3Z" fill="#F8CDBA"/>
<path d="M168.09 182C164.81 187.21 157.95 189.6 150.52 189.6C144.19 189.6 134.97 187.76 128.41 191.5C124.86 193.5 120.79 198.05 119.97 207.16C119.97 208.72 118.2 214.77 118.2 216.72C118.2 218.05 116.7 218.92 114.2 218.92C112.91 218.92 110.36 216.83 110.36 213.64C110.36 209.95 111.83 208.64 111.83 205.51C111.83 202.38 108 199.37 108 190.67C108 178.14 116 170.42 121.66 170.42C126.82 170.42 128.44 171.62 129.09 172.13C129.09 160.74 144.09 155.54 150.04 155.54C156.84 155.54 160.04 158.33 160.04 161.88C160.04 167.54 157.34 172.35 155.97 173.43C159.071 170.64 163.099 169.104 167.27 169.12C175.06 169.12 177.68 174.24 177.68 177.74C177.68 185.35 168.55 192.4 165.15 192.4C164.295 190.59 163.291 188.854 162.15 187.21" fill="#1F161E"/>
<path d="M120.79 211.95C123.91 211.95 126.44 209.42 126.44 206.3C126.44 203.18 123.91 200.65 120.79 200.65C117.67 200.65 115.14 203.18 115.14 206.3C115.14 209.42 117.67 211.95 120.79 211.95Z" fill="#F8CDBA"/>
<path d="M167.5 207.66C169.919 207.66 171.88 206.639 171.88 205.38C171.88 204.121 169.919 203.1 167.5 203.1C165.081 203.1 163.12 204.121 163.12 205.38C163.12 206.639 165.081 207.66 167.5 207.66Z" fill="#FA9E9F"/>
<path d="M139.95 207.66C142.369 207.66 144.33 206.639 144.33 205.38C144.33 204.121 142.369 203.1 139.95 203.1C137.531 203.1 135.57 204.121 135.57 205.38C135.57 206.639 137.531 207.66 139.95 207.66Z" fill="#FA9E9F"/>
<path d="M156.8 200.65C157.62 201.82 161.8 206.73 157.39 208.72" stroke="#1F161E" stroke-miterlimit="10" stroke-linecap="round"/>
<path d="M148.56 214.45C147.24 214.45 145.21 212.81 144.14 211.34" stroke="#1F161E" stroke-miterlimit="10" stroke-linecap="round"/>
<path d="M183.5 285.62C185.5 289.87 195.15 330.87 195.15 343.86" stroke="#1F161E" stroke-miterlimit="10" stroke-linecap="round"/>
<path d="M48.32 335.41C48.32 381.5 48.75 394.87 67.25 394.87C109.89 394.87 174.35 359.87 185.84 359.87C195.99 359.87 201.29 365.11 207.28 365.11C211.45 365.11 218.97 361.82 218.97 357.37C218.97 348.02 200.04 340.66 191.97 340.66C173.8 340.66 101.29 358.18 99.52 358.18C97.75 358.18 94.77 357.41 94.77 354.43C94.77 349.02 98.31 336.52 98.77 335.43L48.32 335.41Z" fill="#F8CDBA"/>
<path d="M109.42 295.21C108.2 298.72 98.69 334.99 97.59 339.41" stroke="#1F161E" stroke-miterlimit="10" stroke-linecap="round"/>
<path d="M418.751 381.013C419.47 378.278 417.836 375.478 415.101 374.759C412.366 374.04 409.566 375.674 408.847 378.409L357.649 573.151C356.93 575.886 358.564 578.686 361.299 579.405C364.033 580.124 366.833 578.49 367.552 575.755L418.751 381.013Z" fill="#969696"/>
<path d="M348.102 381.011C348.821 378.277 347.187 375.477 344.452 374.758C341.718 374.039 338.918 375.673 338.199 378.408L287 573.15C286.281 575.885 287.915 578.685 290.65 579.404C293.385 580.123 296.185 578.489 296.904 575.754L348.102 381.011Z" fill="#D8D8D8"/>
<path d="M398.919 572.152C399.626 574.895 402.423 576.546 405.166 575.839C407.909 575.132 409.559 572.335 408.852 569.592L358.512 374.273C357.805 371.53 355.009 369.88 352.266 370.587C349.523 371.294 347.873 374.09 348.579 376.833L398.919 572.152Z" fill="#D8D8D8"/>
<path d="M59.6814 381.017C60.4004 378.282 58.7663 375.482 56.0315 374.763C53.2967 374.044 50.4969 375.678 49.7779 378.413L-1.42074 573.155C-2.13972 575.89 -0.505612 578.69 2.22915 579.409C4.96392 580.128 7.76374 578.494 8.48273 575.759L59.6814 381.017Z" fill="#969696"/>
<path d="M110.519 575.759C111.238 578.494 114.038 580.128 116.773 579.409C119.507 578.69 121.141 575.89 120.422 573.156L69.2237 378.413C68.5047 375.679 65.7049 374.044 62.9702 374.763C60.2354 375.482 58.6013 378.282 59.3203 381.017L110.519 575.759Z" fill="#969696"/>
<path d="M450.27 365.14H-44.9C-47.4018 365.14 -49.43 367.168 -49.43 369.67V375.76C-49.43 378.262 -47.4018 380.29 -44.9 380.29H450.27C452.772 380.29 454.8 378.262 454.8 375.76V369.67C454.8 367.168 452.772 365.14 450.27 365.14Z" fill="#D8D8D8"/>
<path d="M37.3436 575.76C38.0625 578.494 40.8624 580.128 43.5971 579.409C46.3319 578.691 47.966 575.891 47.247 573.156L-3.95165 378.414C-4.67064 375.679 -7.47045 374.045 -10.2052 374.764C-12.94 375.483 -14.5741 378.283 -13.8551 381.017L37.3436 575.76Z" fill="#D8D8D8"/>
<path d="M321.28 365.14H228.77L245.53 307.5C245.949 306.109 246.806 304.891 247.974 304.028C249.142 303.165 250.558 302.702 252.01 302.71H330.51C331.541 302.693 332.562 302.918 333.491 303.366C334.42 303.813 335.231 304.472 335.861 305.289C336.49 306.106 336.92 307.058 337.116 308.071C337.312 309.083 337.269 310.127 336.99 311.12L321.28 365.14Z" fill="black"/>
<path d="M286.38 339.58C289.506 339.58 292.04 337.046 292.04 333.92C292.04 330.794 289.506 328.26 286.38 328.26C283.254 328.26 280.72 330.794 280.72 333.92C280.72 337.046 283.254 339.58 286.38 339.58Z" fill="white"/>
<path d="M239.76 361.09H174.85V365.14H239.76V361.09Z" fill="black"/>
</g>
<defs>
<clipPath id="clip0_26_78">
<rect width="744.66" height="594.92" fill="white" transform="translate(-199 -13)"/>
</clipPath>
</defs>
</svg>
