<svg width="95" height="150" viewBox="0 0 95 150" fill="none" xmlns="http://www.w3.org/2000/svg">
<g clip-path="url(#clip0_21_23)">
<path d="M19.996 144.016C19.7902 144.435 18.43 146.863 18.67 147.419C19.1082 148.425 25.7951 150.135 26.2219 149.988C26.6486 149.841 27.083 149.376 26.881 149.15C26.6791 148.924 24.2939 147.685 24.0386 147.38C23.7833 147.074 23.8062 145.881 24.2672 145.38" fill="#1F161E"/>
<path d="M49.6204 59.4869C51.3121 60.71 75.8232 78.1387 75.8232 87.2964C75.8232 90.0666 68.8505 130.669 68.0656 131.495H62.0074C62.0074 131.495 59.3402 97.668 61.4625 91.0573C59.8889 90.5222 45.4596 86.4892 39.0585 82.1656C32.6573 77.8421 37.2372 61.2053 49.6204 59.4869Z" fill="#1F161E"/>
<path d="M49.6204 59.4869C51.5255 59.756 25.1855 145.499 25.1855 145.499H18.6434C18.6434 145.499 21.1276 64.3455 22.5526 60.395C29.3386 58.7561 44.4957 58.7561 49.6204 59.4869Z" fill="#AB8FE2"/>
<path d="M14.5169 26.6017C21.4972 22.6512 45.3796 22.6512 70.1231 23.4431C73.0493 23.5379 81.3518 9.43596 84.8915 7.43013C88.7893 5.22249 95 7.21609 95 8.39024C95 10.9526 90.5725 11.0137 89.6352 11.8423C88.6979 12.671 80.323 32.399 73.2513 35.3038C70.9651 36.2456 54.0554 35.9337 52.8743 37.1598C51.6931 38.386 50.611 58.7256 49.6241 59.4808C48.6373 60.236 25.2617 60.8629 22.5716 60.3981C22.423 58.8173 19.2758 45.706 18.4871 44.6786C18.0527 44.6481 11.7621 53.1117 11.7659 54.1788C11.7659 55.5853 22.5297 67.3696 27.041 69.3876C28.2108 69.9074 28.0393 71.3874 27.8259 71.7482C27.6126 72.109 26.0008 73.8885 24.9949 73.8885C23.989 73.8885 0.529568 62.5843 -5.13657e-05 54.0657C-0.141029 51.7632 5.52094 31.708 14.5169 26.6017Z" fill="#FADB93"/>
<path d="M62.819 130.978C62.819 131.428 62.6285 134.088 63.1047 134.537C63.962 135.348 70.9652 135.024 71.2967 134.764C71.6282 134.504 71.8339 133.95 71.5405 133.791C71.2472 133.632 68.4695 133.158 68.1113 132.947C67.7532 132.736 67.2274 131.614 67.4293 131.015" fill="#1F161E"/>
<path d="M35.3321 25.3419C35.4616 26.5467 27.2163 27.201 27.0792 25.9076L26.2257 17.8537L34.4786 17.2911L35.3321 25.3419Z" fill="#F8CDBA"/>
<path d="M26.7363 22.6634C26.66 21.9479 28.4394 19.3397 30.0549 19.6486C28.0584 19.2297 26.8963 17.4195 26.2447 17.8537L26.7363 22.6634Z" fill="black"/>
<path d="M33.3889 20.0705C39.3315 20.0705 44.1489 16.2046 44.1489 11.4357C44.1489 6.66677 39.3315 2.80081 33.3889 2.80081C27.4463 2.80081 22.6288 6.66677 22.6288 11.4357C22.6288 16.2046 27.4463 20.0705 33.3889 20.0705Z" fill="#F8CDBA"/>
<path d="M44.434 12.5941C45.4216 12.5266 46.1867 12.1376 46.1429 11.7254C46.0991 11.3132 45.2631 11.0337 44.2755 11.1012C43.288 11.1688 42.5229 11.5577 42.5666 11.9699C42.6104 12.3822 43.4465 12.6616 44.434 12.5941Z" fill="#FA9E9F"/>
<path d="M33.1862 13.3637C34.1737 13.2962 34.9388 12.9073 34.895 12.495C34.8513 12.0828 34.0152 11.8033 33.0277 11.8709C32.0401 11.9384 31.275 12.3273 31.3188 12.7396C31.3626 13.1518 32.1986 13.4312 33.1862 13.3637Z" fill="#FA9E9F"/>
<path d="M39.8243 10.5979C40.2054 10.9587 42.0876 12.4478 40.3425 13.2244" stroke="#1F161E" stroke-width="1.08" stroke-miterlimit="10" stroke-linecap="round"/>
<path d="M36.9362 15.3495C36.3989 15.3709 35.515 14.9061 35.0311 14.4536" stroke="#1F161E" stroke-width="1.08" stroke-miterlimit="10" stroke-linecap="round"/>
<path d="M22.6098 7.1213C22.2935 4.13396 27.2468 1.55634 30.8589 1.31173C36.6047 0.917292 39.8243 1.02125 42.9754 0.186509C47.4867 -1.00598 47.4028 3.85571 47.4638 4.40915C47.7077 6.73603 46.8046 8.25264 43.6536 8.83971C43.3514 8.0356 42.8923 7.275 42.2934 6.58621C41.3757 6.37142 40.393 6.42451 39.5195 6.73603C38.7308 7.0204 32.2001 10.0567 27.1668 10.4052C26.5762 11.2033 25.5932 15.9335 26.2371 17.8568C24.7664 18.0249 21.642 14.3619 21.2838 12.353C21.1774 11.6645 21.2737 10.9657 21.5649 10.3125C21.856 9.65938 22.334 9.0701 22.9603 8.59204C22.8613 8.17008 22.6365 7.35674 22.6098 7.1213Z" fill="black"/>
<path d="M26.8963 14.1937C28.2052 14.1937 29.2662 13.3422 29.2662 12.2918C29.2662 11.2414 28.2052 10.39 26.8963 10.39C25.5874 10.39 24.5263 11.2414 24.5263 12.2918C24.5263 13.3422 25.5874 14.1937 26.8963 14.1937Z" fill="#F8CDBA"/>
<path d="M27.022 69.3846C22.5107 67.3665 11.7507 55.5823 11.7469 54.1757C11.7469 53.4908 14.3264 49.7696 16.2963 47.192L3.69212 41.7219C1.2612 47.5314 -0.0685632 52.9374 0.00383084 54.0657C0.52964 62.5843 23.9701 73.8702 24.976 73.8702C25.9819 73.8702 27.5936 72.1059 27.8069 71.7298C28.0203 71.3537 28.1956 69.9044 27.022 69.3846Z" fill="#F8CDBA"/>
<path d="M84.8915 7.44237C81.3518 9.4482 73.0494 23.544 70.1079 23.4554C65.128 23.2964 67.997 23.3759 63.219 23.3086L63.1924 36.0193C68.7362 36.0193 71.6548 35.9612 73.2323 35.3161C80.3078 32.4113 88.6865 12.6893 89.6162 11.8546C90.5459 11.0198 94.981 10.9648 94.981 8.40247C95 7.22833 88.7779 5.23473 84.8915 7.44237Z" fill="#F8CDBA"/>
</g>
<defs>
<clipPath id="clip0_21_23">
<rect width="95" height="150" fill="white"/>
</clipPath>
</defs>
</svg>
