<svg width="375" height="590" viewBox="0 0 375 590" fill="none" xmlns="http://www.w3.org/2000/svg">
<g clip-path="url(#clip0_27_343)">
<path d="M188.922 579.137C335.776 579.137 454.824 449.492 454.824 289.568C454.824 129.644 335.776 0 188.922 0C42.0684 0 -76.9799 129.644 -76.9799 289.568C-76.9799 449.492 42.0684 579.137 188.922 579.137Z" fill="#FAEFE9"/>
<path d="M402.689 588.876C402.806 586.149 402.882 583.414 402.882 580.635C402.882 449.262 273.295 342.762 113.444 342.762C-46.4064 342.762 -176 449.284 -176 580.635C-176 583.392 -175.924 586.127 -175.807 588.876H402.689Z" fill="#E2E2E2"/>
<path d="M568.195 588.876C568.278 586.951 568.34 585.018 568.34 583.07C568.34 490.281 471.576 415.06 352.213 415.06C232.849 415.06 136.086 490.281 136.086 583.07C136.086 585.018 136.141 586.951 136.23 588.876H568.195Z" fill="#EFEFEF"/>
<path d="M385.497 588.876C385.891 586.336 386.089 583.765 386.088 581.189C386.088 560.743 373.877 544.171 358.81 544.171C343.744 544.171 331.532 560.743 331.532 581.189C331.532 583.765 331.73 586.336 332.124 588.876H385.497Z" fill="#99574A"/>
<path d="M296.459 354.03C282.342 368.677 334.827 421.631 342.457 414.371C350.087 407.111 310.253 339.72 296.459 354.03Z" fill="#73E5E2"/>
<path d="M302.403 361.365C308.32 366.946 335.426 399.117 342.457 414.371" stroke="#FBDC8E" stroke-width="2" stroke-miterlimit="10" stroke-linecap="round"/>
<path d="M40.5123 370.58C60.8075 380.634 63.1328 417.907 59.4453 426.239C53.5494 439.544 32.0915 458.799 26.3194 472.09C23.8427 477.799 2.89387 537.271 -16.5895 530.333C-33.9334 524.137 -43.4205 496.791 -33.6238 477.769C-19.1763 449.644 -13.3561 412.123 -8.23755 402.099C-1.48164 388.921 20.7605 360.795 40.5123 370.58Z" fill="#50B89D"/>
<path d="M-23.8546 587.161C-23.8546 573.54 -16.2869 464.553 19.7079 420.035" stroke="#FBDC8E" stroke-width="3" stroke-miterlimit="10" stroke-linecap="round"/>
<path d="M6.89784 440.683L-0.896912 408.213" stroke="#FBDC8E" stroke-width="3" stroke-miterlimit="10" stroke-linecap="round"/>
<path d="M11.9407 502.777L29.0437 495.248" stroke="#FBDC8E" stroke-width="3" stroke-miterlimit="10" stroke-linecap="round"/>
<path d="M167.299 213.179C169.707 213.659 176.139 214.633 180.831 213.659C185.523 212.685 185.138 201.866 179.345 201.709C173.553 201.552 167.299 213.179 167.299 213.179Z" fill="#1F161E"/>
<path d="M135.033 351.086C133.237 356.959 115.77 434.292 112.392 437.994C109.014 441.695 14.4312 495.091 14.4312 495.091L20.85 512.772C20.85 512.772 119.966 478.308 125.099 475.259C130.231 472.21 169.308 434.869 175.266 419.181C181.224 403.493 141.878 350.868 135.033 351.086Z" fill="#1F161E"/>
<path d="M229.987 561.688C229.987 563.463 229.031 574.664 230.937 575.698C232.842 576.731 253.791 577.361 254.74 576.319C255.69 575.278 256.268 573.105 255.428 572.484C254.589 571.862 246.485 570.101 245.384 569.269C244.283 568.438 242.763 564.025 243.32 561.688" fill="#1F161E"/>
<path d="M15.1467 496.791C13.64 497.473 3.77447 500.807 3.62999 503.122C3.48552 505.437 10.9775 526.745 12.2228 527.299C13.468 527.853 15.5319 527.606 15.7315 526.505C15.931 525.403 14.3555 516.593 14.6101 515.169C14.8646 513.746 18.0499 510.532 20.2583 510.202" fill="#1F161E"/>
<path d="M226.334 307.002C224.305 307.647 207.993 312.067 206.3 312.067C204.608 312.067 202.241 329.913 203.934 329.733C205.626 329.553 227.015 322.563 232.34 322.009C237.665 321.454 226.334 307.002 226.334 307.002Z" fill="#F8CDBA"/>
<path d="M166.68 229.714C178.85 228.47 201.312 234.839 208.385 239.252C222.309 247.942 206.238 360.001 199.014 368.317C192.554 371.104 137.785 357.079 135.033 351.086C136.498 339.098 158.211 297.547 160.275 295.3C158.899 293.801 152.707 285.56 152.707 285.56C152.707 285.56 158.273 277.424 158.899 276.959C157.124 275.67 139.388 260.417 138.404 259.555C141.947 253.846 162.586 230.134 166.68 229.714Z" fill="#AB8DE5"/>
<path d="M184.147 327.036C183.191 324.496 153.794 287.051 152.735 285.545C154.338 283.118 156.993 279.386 159.174 276.592C150.781 269.924 141.775 262.357 138.535 259.3C138.473 259.375 138.445 259.458 138.383 259.54C136.918 261.451 123.847 282.765 123.847 285.762C123.847 288.759 163.852 331.187 168.847 333.262C173.842 335.337 185.104 329.583 184.147 327.036Z" fill="#F8CDBA"/>
<path d="M189.07 339.398C192.293 334.03 190.529 326.562 185.129 322.717C179.729 318.871 172.739 320.106 169.516 325.474C166.293 330.842 168.057 338.31 173.457 342.155C178.857 346 185.847 344.766 189.07 339.398Z" fill="#F8CDBA"/>
<path d="M231.053 324.092C236.297 324.092 240.548 319.463 240.548 313.753C240.548 308.043 236.297 303.414 231.053 303.414C225.81 303.414 221.559 308.043 221.559 313.753C221.559 319.463 225.81 324.092 231.053 324.092Z" fill="#F8CDBA"/>
<path d="M199.015 368.317C199.015 368.317 226.843 427.774 231.102 440.136C235.36 452.498 245.728 562.429 245.728 562.429C245.728 562.429 231.865 564.212 228.136 562.429C224.408 560.646 208.949 480.676 200.425 464.283C187.45 439.372 116.967 392.914 135.012 351.048" fill="#FBDC8E"/>
<path d="M178.183 235.835C177.866 237.783 192.41 240.63 192.733 238.675L195.981 218.956L181.437 216.109L178.183 235.835Z" fill="#F8CDBA"/>
<path d="M190.938 224.215C189.52 223.938 179.717 226.53 179.318 228.965L181.437 216.109C183.7 216.521 190.938 224.215 190.938 224.215Z" fill="#1F161E"/>
<path d="M196.524 226.358C207.972 226.358 217.253 216.251 217.253 203.784C217.253 191.317 207.972 181.211 196.524 181.211C185.076 181.211 175.795 191.317 175.795 203.784C175.795 216.251 185.076 226.358 196.524 226.358Z" fill="#F8CDBA"/>
<path d="M218.406 212.784C218.591 211.664 217.139 210.444 215.165 210.058C213.19 209.672 211.44 210.267 211.255 211.387C211.071 212.507 212.522 213.728 214.497 214.114C216.471 214.5 218.222 213.904 218.406 212.784Z" fill="#FA9E9F"/>
<path d="M195.934 208.396C196.118 207.276 194.667 206.055 192.692 205.669C190.718 205.283 188.967 205.879 188.783 206.999C188.598 208.119 190.05 209.339 192.024 209.725C193.999 210.111 195.749 209.516 195.934 208.396Z" fill="#FA9E9F"/>
<path d="M206.796 206.182C207.298 207.35 210.008 212.378 206.108 213.441" stroke="#1F161E" stroke-width="1.2" stroke-miterlimit="10" stroke-linecap="round"/>
<path d="M198.051 217.128C196.985 216.88 195.561 215.142 194.901 213.659" stroke="#1F161E" stroke-width="1.2" stroke-miterlimit="10" stroke-linecap="round"/>
<path d="M158.039 278.075C159.931 275.775 166.983 266.275 170.016 263.608" stroke="#1F161E" stroke-miterlimit="10" stroke-linecap="round"/>
<path d="M199.358 173.569C193.855 173.569 177.515 170.632 173.539 167.575C171.957 168.781 166.123 176.116 161.761 185.556L170.333 192.838L160.158 189.324C158.147 194.197 156.981 199.432 156.718 204.766C160.048 211.718 168.2 213.659 169.679 213.659C179.311 213.659 181.1 197.124 185.647 194.486C193.366 189.991 203.927 197.483 215.87 195.281C217.789 188.987 212.54 173.569 199.358 173.569Z" fill="#1F161E"/>
<path d="M177.24 207.875C179.885 207.875 182.029 205.54 182.029 202.66C182.029 199.78 179.885 197.446 177.24 197.446C174.596 197.446 172.452 199.78 172.452 202.66C172.452 205.54 174.596 207.875 177.24 207.875Z" fill="#F8CDBA"/>
<path d="M160.977 326.602C159.208 324.841 143.055 327.516 139.649 336.798C144.128 326.122 148.325 317.319 149.57 315.176C150.898 316.555 160.977 326.602 160.977 326.602Z" fill="#1F161E"/>
<path d="M210.641 312.666C210.263 315.663 212.753 327.163 217.892 325.687L208.474 328.49L210.641 312.666Z" fill="#1F161E"/>
<path d="M323.552 307.002C350.19 299.121 360.014 412.738 346.557 416.049C333.101 419.361 308.265 311.527 323.552 307.002Z" fill="#50B89D"/>
<path d="M329.661 325.987C331.835 332.865 343.984 381.076 346.592 416.049" stroke="#FBDC8E" stroke-width="2" stroke-miterlimit="10" stroke-linecap="round"/>
<path d="M425.179 289.568C431.316 289.568 438.079 300.349 438.519 304.095C439.764 314.659 435.898 321.732 436.118 325.987C436.613 335.48 439.847 343.968 437.453 349.145C423.328 379.788 375.184 373.007 369.446 383.549C367.974 386.545 363.743 396 363.743 396C361.507 393.566 355.845 376.881 355.845 370.37C355.845 363.86 364.142 345.953 380.42 333.18C389.026 326.429 404.836 289.568 425.179 289.568Z" fill="#73E5E2"/>
<path d="M358.81 412.55C360.606 405.808 378.129 348.119 421.946 321.454" stroke="#FBDC8E" stroke-width="2" stroke-miterlimit="10" stroke-linecap="round"/>
<path d="M414.598 352.801L362.112 588.876H467.084L414.598 352.801Z" fill="#B37361"/>
<path d="M-90.7394 588.876C-90.7394 581.834 -79.0438 557.41 -59.0926 557.41C-39.6023 557.41 -35.1236 565.186 -18.9493 565.186C-6.8685 565.186 -7.69407 560.002 3.63686 560.002C26.8078 560.002 35.8203 580.006 35.8203 588.899L-90.7394 588.876Z" fill="#B37361"/>
<path d="M-118.554 158.157C-118.554 147.242 -93.6633 144.926 -83.8322 144.926C-63.8809 144.926 -62.5531 132.49 -45.9936 132.49C-31.4361 132.49 -24.0266 145.324 -10.4598 145.324C18.6553 145.324 25.136 108.83 53.4462 108.83C82.2447 108.83 80.7794 146.927 107.583 146.927C121.212 146.927 203.087 149.736 203.087 158.165L-118.554 158.157Z" fill="white"/>
<path d="M278.063 204.316C278.063 197.416 299.638 186.62 311.436 186.62C334.71 186.62 327.445 195.468 342.086 195.468C358.769 195.468 362.58 156.067 387.967 156.067C415.713 156.067 411.358 194.599 428.385 194.599C435.719 194.599 439.393 190.853 449.822 190.853C455.863 190.853 462.481 197.431 462.481 204.338L278.063 204.316Z" fill="white"/>
</g>
<defs>
<clipPath id="clip0_27_343">
<rect width="745" height="590" fill="white" transform="translate(-176)"/>
</clipPath>
</defs>
</svg>
