<svg width="13" height="13" viewBox="0 0 13 13" fill="none" xmlns="http://www.w3.org/2000/svg">
<path fill-rule="evenodd" clip-rule="evenodd" d="M0.133407 3.3591C-0.0605356 5.60097 -0.0518905 8.18658 0.217983 10.4193C0.367311 11.6548 1.17776 12.6019 2.17818 12.7101L3.22371 12.8232C5.40379 13.0589 7.5962 13.0589 9.77628 12.8232L10.8218 12.7101C11.8222 12.6019 12.6327 11.6548 12.782 10.4193C13.0519 8.18657 13.0605 5.60112 12.8666 3.35924C12.8415 3.09933 12.8133 2.83978 12.782 2.58066C12.6327 1.34522 11.8222 0.398096 10.8218 0.289902L9.77628 0.176829C7.5962 -0.0589431 5.40379 -0.058943 3.22371 0.176829L2.17818 0.289902C1.17776 0.398096 0.367311 1.34522 0.217983 2.58066C0.186669 2.83973 0.158477 3.09924 0.133407 3.3591ZM3.31364 1.46392C5.43388 1.23462 7.56611 1.23462 9.68635 1.46392L10.7319 1.577C11.2541 1.63347 11.6772 2.12787 11.7551 2.77277C11.7632 2.83975 11.7711 2.90675 11.7787 2.97378L7.92886 5.63472C7.04023 6.24891 5.95971 6.24891 5.07108 5.63472L1.22125 2.97381C1.22891 2.90677 1.23679 2.83976 1.24488 2.77277C1.32283 2.12787 1.74589 1.63347 2.26811 1.577L3.31364 1.46392ZM11.9058 4.36389C12.0401 6.3171 11.9899 8.28504 11.7551 10.2272C11.6772 10.8721 11.2541 11.3665 10.7319 11.423L9.68635 11.5361C7.56611 11.7654 5.43388 11.7654 3.31364 11.5361L2.26811 11.423C1.74589 11.3665 1.32283 10.8721 1.24488 10.2272C1.01013 8.28504 0.9599 6.31712 1.09418 4.36392L4.56676 6.76408C5.76903 7.59506 7.23091 7.59506 8.43318 6.76408L11.9058 4.36389Z" fill="#FFFEFE"/>
</svg>
