<svg width="13" height="13" viewBox="0 0 13 13" fill="none" xmlns="http://www.w3.org/2000/svg">
<path fill-rule="evenodd" clip-rule="evenodd" d="M1.67444 5.0511C3.00101 7.9414 5.36162 10.2393 8.29616 11.4844L8.30542 11.4883L8.87234 11.7411C9.59424 12.063 10.4428 11.8344 10.9056 11.1934L11.8515 9.8836C11.9092 9.80359 11.8944 9.69234 11.8176 9.63036L10.1663 8.29747C10.0843 8.2312 9.96355 8.24664 9.90075 8.33142L9.25809 9.19912C9.10202 9.40985 8.82016 9.48307 8.58134 9.37493C6.38705 8.38132 4.62377 6.61701 3.63073 4.42145C3.52266 4.18249 3.59584 3.90047 3.80644 3.74431L4.67363 3.10128C4.75837 3.03844 4.77379 2.91767 4.70757 2.83554L3.37526 1.18312C3.31334 1.10632 3.20219 1.0914 3.12223 1.14916L1.80607 2.09986C1.16124 2.56564 0.934153 3.4218 1.2633 4.14621L1.674 5.05013C1.67414 5.05045 1.67429 5.05077 1.67444 5.0511ZM7.85684 12.508C4.66826 11.1537 2.10364 8.65616 0.662222 5.51495L0.661354 5.51305L0.249794 4.60724C-0.298778 3.39988 0.0796988 1.97295 1.15441 1.19665L2.47058 0.245949C3.0303 -0.158352 3.80831 -0.0539326 4.24176 0.483664L5.57407 2.13609C6.03762 2.71102 5.92965 3.55645 5.33651 3.99627L4.83959 4.36474C5.67897 5.99439 7.00931 7.3255 8.63802 8.16537L9.00628 7.66816C9.44585 7.07467 10.2908 6.96664 10.8654 7.43046L12.5166 8.76336C13.0541 9.19719 13.1583 9.97596 12.7539 10.536L11.808 11.8458C11.0366 12.9141 9.62241 13.2951 8.41925 12.7587L7.85684 12.508Z" fill="white"/>
</svg>
