<svg width="28" height="14" viewBox="0 0 28 14" fill="none" xmlns="http://www.w3.org/2000/svg">
<path fill-rule="evenodd" clip-rule="evenodd" d="M0 7C0 3.13401 4.33939 0 9.69231 0H21.1795C24.9464 0 28 2.20541 28 4.92593C28 7.64644 24.9464 9.85185 21.1795 9.85185H9.48718C7.30636 9.85185 5.53846 8.57503 5.53846 7C5.53846 5.42497 7.30636 4.14815 9.48718 4.14815H20.7692C21.364 4.14815 21.8462 4.49637 21.8462 4.92593C21.8462 5.35548 21.364 5.7037 20.7692 5.7037H9.48718C8.4959 5.7037 7.69231 6.28407 7.69231 7C7.69231 7.71592 8.4959 8.2963 9.48718 8.2963H21.1795C23.7568 8.2963 25.8462 6.78733 25.8462 4.92593C25.8462 3.06452 23.7568 1.55556 21.1795 1.55556H9.69231C5.52893 1.55556 2.15385 3.99312 2.15385 7C2.15385 10.0069 5.52893 12.4444 9.69231 12.4444H20.7692C21.364 12.4444 21.8462 12.7927 21.8462 13.2222C21.8462 13.6518 21.364 14 20.7692 14H9.69231C4.3394 14 0 10.866 0 7Z" fill="#969696"/>
</svg>
