<svg width="19" height="17" viewBox="0 0 19 17" fill="none" xmlns="http://www.w3.org/2000/svg">
<path fill-rule="evenodd" clip-rule="evenodd" d="M18.5 8.25C18.5 8.52238 18.3523 8.77334 18.1142 8.90562L15.8319 10.1736C11.3205 12.6799 6.56474 14.7187 1.63879 16.258L0.973706 16.4659C0.745977 16.537 0.497976 16.4956 0.305747 16.3543C0.113519 16.2129 -6.98884e-07 15.9886 -6.88455e-07 15.75L-4.37114e-07 10C-4.20022e-07 9.60898 0.300415 9.28357 0.690191 9.25239L0.917518 9.23421C3.06898 9.06209 5.20387 8.73288 7.3052 8.24969C5.17436 7.75979 3.00902 7.42824 0.8269 7.25827L0.691755 7.24774C0.301315 7.21732 -3.01243e-07 6.89163 -2.84124e-07 6.5L-3.27838e-08 0.750005C-2.23548e-08 0.511416 0.11352 0.287062 0.305748 0.145737C0.497976 0.00441237 0.745977 -0.0370198 0.973705 0.0341452L1.63878 0.241981C6.56474 1.78134 11.3205 3.82008 15.8319 6.32643L18.1142 7.59439C18.3523 7.72666 18.5 7.97763 18.5 8.25ZM16.2057 8.25L15.1034 7.63766C10.7756 5.23333 6.21847 3.26801 1.5 1.77089L1.5 5.80957C4.43008 6.07384 7.32829 6.62016 10.1543 7.44119L10.4592 7.52978C10.7799 7.62294 11.0003 7.91684 11 8.25073C10.9997 8.58463 10.7787 8.8781 10.4578 8.97063L10.0673 9.08328C7.26882 9.89041 4.40003 10.4284 1.5 10.69L1.5 14.7291C6.21846 13.232 10.7756 11.2667 15.1034 8.86235L16.2057 8.25Z" fill="#969696"/>
</svg>
