<svg width="20" height="21" viewBox="0 0 20 21" fill="none" xmlns="http://www.w3.org/2000/svg">
<path fill-rule="evenodd" clip-rule="evenodd" d="M4.64767 13.3897C4.63948 13.74 4.86433 14.0511 5.19302 14.1441C5.52171 14.2372 5.86983 14.0884 6.03734 13.7832L6.93106 12.1549C7.99096 10.2239 10.1009 9.1659 12.2341 9.49587L12.382 9.51875C12.4086 10.2088 12.4463 10.8985 12.4952 11.5876L12.5624 12.5349C12.617 13.3054 13.4529 13.736 14.0862 13.3201C16.1639 11.9557 17.9702 10.1975 19.4087 8.1394L19.8605 7.49305C20.0465 7.22687 20.0465 6.86836 19.8605 6.60218L19.4087 5.95583C17.9702 3.89772 16.1639 2.13958 14.0862 0.775118C13.4529 0.35919 12.617 0.789866 12.5624 1.56029L12.4952 2.50766C12.4558 3.0632 12.4236 3.61915 12.3987 4.17536L11.3902 4.17536C7.76035 4.17535 4.79359 7.15204 4.70635 10.8816L4.64767 13.3897ZM12.4552 7.98591C10.0589 7.61524 7.68551 8.60675 6.21534 10.519C6.47446 7.80793 8.69781 5.70232 11.3902 5.70233L13.1124 5.70233C13.5128 5.70233 13.8411 5.3762 13.8548 4.96494C13.8808 4.18232 13.9216 3.40009 13.977 2.61868L13.9824 2.54288C15.6102 3.72543 17.0368 5.1795 18.202 6.84669L18.3425 7.04762L18.202 7.24854C17.0368 8.91573 15.6102 10.3698 13.9824 11.5524L13.977 11.4766C13.9146 10.5971 13.8709 9.71668 13.8457 8.8358C13.8351 8.46666 13.569 8.15819 13.2137 8.10323L12.4552 7.98591Z" fill="#006BB8"/>
<path d="M16.9209 15.7928C17.0377 14.7663 17.1202 13.7368 17.1683 12.706C17.1735 12.5944 17.2227 12.4899 17.3042 12.4159C17.6641 12.0894 18.0128 11.7501 18.3498 11.3986C18.4765 11.2664 18.6979 11.3589 18.694 11.5444C18.6631 13.0224 18.564 14.4994 18.3966 15.9701C18.1623 18.029 16.5534 19.6425 14.5605 19.8715C11.1269 20.2659 7.57764 20.2659 4.14404 19.8715C2.15113 19.6425 0.542248 18.029 0.307946 15.9701C-0.102649 12.3621 -0.102649 8.71721 0.307946 5.10918C0.542248 3.05029 2.15113 1.43678 4.14404 1.20786C6.41323 0.947205 8.73291 0.858811 11.0364 0.942677C11.2303 0.949738 11.3638 1.14486 11.3396 1.34275C11.3346 1.38396 11.3306 1.42565 11.3276 1.46778L11.2768 2.18425C11.2651 2.34875 11.1285 2.47391 10.9681 2.46812C8.7424 2.38787 6.50082 2.47362 4.30907 2.72538C2.99162 2.87671 1.93626 3.9452 1.78362 5.28657C1.38643 8.77674 1.38643 12.3026 1.78362 15.7928C1.93627 17.1341 2.99162 18.2026 4.30907 18.3539C7.63299 18.7358 11.0715 18.7358 14.3955 18.3539C15.7129 18.2026 16.7683 17.1341 16.9209 15.7928Z" fill="#006BB8"/>
</svg>
