<svg width="13" height="13" viewBox="0 0 13 13" fill="none" xmlns="http://www.w3.org/2000/svg">
<path fill-rule="evenodd" clip-rule="evenodd" d="M2.93548 3.25401C2.93548 1.45687 4.53137 0 6.5 0C8.46863 0 10.0645 1.45687 10.0645 3.25401C10.0645 5.05115 8.46863 6.50802 6.5 6.50802C4.53137 6.50802 2.93548 5.05115 2.93548 3.25401ZM6.5 1.14847C5.22618 1.14847 4.19355 2.09115 4.19355 3.25401C4.19355 4.41686 5.22618 5.35954 6.5 5.35954C7.77382 5.35954 8.80645 4.41686 8.80645 3.25401C8.80645 2.09115 7.77382 1.14847 6.5 1.14847Z" fill="white"/>
<path fill-rule="evenodd" clip-rule="evenodd" d="M3.14516 8.80497C2.10295 8.80497 1.25806 9.57625 1.25806 10.5277V11.4375C1.25806 11.4513 1.26906 11.4631 1.28404 11.4654C4.73848 11.9802 8.26152 11.9802 11.716 11.4654C11.7309 11.4631 11.7419 11.4513 11.7419 11.4375V10.5277C11.7419 9.57625 10.8971 8.80497 9.85484 8.80497H9.56895C9.54684 8.80497 9.52488 8.80816 9.50386 8.81442L8.77795 9.03081C7.29777 9.47203 5.70223 9.47203 4.22205 9.03081L3.49614 8.81442C3.47512 8.80816 3.45316 8.80497 3.43105 8.80497H3.14516ZM0 10.5277C0 8.94197 1.40814 7.65649 3.14516 7.65649H3.43105C3.58579 7.65649 3.73955 7.67883 3.88664 7.72267L4.61256 7.93906C5.83899 8.30464 7.16101 8.30464 8.38744 7.93906L9.11336 7.72267C9.26045 7.67883 9.41421 7.65649 9.56895 7.65649H9.85484C11.5919 7.65649 13 8.94197 13 10.5277V11.4375C13 12.0142 12.5422 12.5059 11.9187 12.5988C8.32998 13.1337 4.67002 13.1337 1.08132 12.5988C0.457838 12.5059 0 12.0142 0 11.4375V10.5277Z" fill="white"/>
</svg>
